<svg width="25" height="25" viewBox="0 0 25 25" fill="none" xmlns="http://www.w3.org/2000/svg">
<circle cx="12.5" cy="12.5" r="12.5" fill="#D9D9D9"/>
<path d="M19.1056 7.65123C19.4853 7.23255 19.4248 6.61068 18.9679 6.2628C18.5109 5.91492 17.8322 5.97034 17.4526 6.38902L12.9033 11.3917L8.35398 6.38902C7.97431 5.97034 7.29561 5.91492 6.83866 6.2628C6.38172 6.61068 6.32124 7.23255 6.70091 7.65123L11.5022 12.931L6.70091 18.2107C6.32124 18.6294 6.38172 19.2513 6.83866 19.5991C7.29561 19.947 7.97431 19.8916 8.35398 19.4729L12.9033 14.4703L17.4526 19.4729C17.8322 19.8916 18.5109 19.947 18.9679 19.5991C19.4248 19.2513 19.4853 18.6294 19.1056 18.2107L14.3043 12.931L19.1056 7.65123Z" fill="white"/>
</svg>
