<svg width="42" height="42" viewBox="0 0 42 42" fill="none" xmlns="http://www.w3.org/2000/svg">
<circle cx="18.5" cy="10.5" r="10" fill="#E9E9E9"/>
<ellipse cx="31" cy="18.5" rx="10.5" ry="10" fill="#E9E9E9"/>
<ellipse cx="14" cy="18.5" rx="13.5" ry="10" fill="#E9E9E9"/>
<rect x="12.5" y="15.5" width="17" height="13" fill="#E9E9E9"/>
<ellipse cx="14.9146" cy="17.5714" rx="6.34146" ry="6.07143" fill="#FBFBFB"/>
<ellipse cx="22.8415" cy="22.4286" rx="6.65854" ry="6.07143" fill="#FBFBFB"/>
<ellipse cx="12.061" cy="22.4286" rx="8.56098" ry="6.07143" fill="#FBFBFB"/>
<rect x="11.1098" y="20.6072" width="10.7805" height="7.89286" fill="#FBFBFB"/>
<circle cx="11" cy="35.9998" r="2" transform="rotate(-20 11 35.9998)" fill="#61C5FF"/>
<path d="M11.8965 34.0772L11.4267 34.2482L12.0675 34.547L11.8965 34.0772Z" stroke="#61C5FF"/>
<circle cx="28.5634" cy="34.5633" r="2" transform="rotate(-20 28.5634 34.5633)" fill="#61C5FF"/>
<path d="M29.4599 32.6406L28.9901 32.8116L29.6309 33.1105L29.4599 32.6406Z" stroke="#61C5FF"/>
<ellipse cx="19.3328" cy="34.6306" rx="1.2554" ry="1.27834" transform="rotate(-20 19.3328 34.6306)" fill="#61C5FF"/>
<ellipse cx="20.6169" cy="39.6306" rx="1.2554" ry="1.27834" transform="rotate(-20 20.6169 39.6306)" fill="#61C5FF"/>
</svg>
